<svg width="640" height="470" viewBox="0 0 640 470" fill="none" xmlns="http://www.w3.org/2000/svg">
  <rect width="640" height="470" rx="36" fill="#0C1230"/>
  <rect x="42" y="48" width="556" height="66" rx="16" fill="#141E48"/>
  <rect x="66" y="72" width="140" height="18" rx="9" fill="#6E8BFF"/>
  <rect x="42" y="140" width="266" height="262" rx="24" fill="#141E48"/>
  <rect x="334" y="140" width="264" height="122" rx="24" fill="#141E48"/>
  <rect x="334" y="280" width="264" height="122" rx="24" fill="#141E48"/>
  <circle cx="175" cy="271" r="78" fill="#1D2A65"/>
  <path d="M145 292L175 228L205 292H191L175 257L159 292H145Z" fill="#3FE0C7"/>
  <rect x="362" y="173" width="186" height="16" rx="8" fill="#3B4E95"/>
  <rect x="362" y="202" width="112" height="12" rx="6" fill="#6E8BFF"/>
  <rect x="362" y="313" width="186" height="16" rx="8" fill="#3B4E95"/>
  <rect x="362" y="342" width="141" height="12" rx="6" fill="#6E8BFF"/>
</svg>
