<svg width="900" height="220" viewBox="0 0 900 220" fill="none" xmlns="http://www.w3.org/2000/svg" role="img" aria-labelledby="logoTitle logoDesc">
  <title id="logoTitle">DeepVTech Solutions logo</title>
  <desc id="logoDesc">Gradient icon and DEEPVTECH SOLUTIONS wordmark</desc>

  <defs>
    <linearGradient id="iconBlue" x1="0" y1="0" x2="1" y2="1">
      <stop offset="0" stop-color="#2ED8E5"/>
      <stop offset="0.6" stop-color="#0A51A1"/>
      <stop offset="1" stop-color="#0B104D"/>
    </linearGradient>
    <linearGradient id="iconAccent" x1="0" y1="0" x2="1" y2="1">
      <stop offset="0" stop-color="#FDBA13"/>
      <stop offset="0.38" stop-color="#EF5A1C"/>
      <stop offset="0.68" stop-color="#8E2DE2"/>
      <stop offset="1" stop-color="#3A0CA3"/>
    </linearGradient>
    <linearGradient id="wordBlue" x1="320" y1="45" x2="730" y2="45">
      <stop offset="0" stop-color="#053E7A"/>
      <stop offset="0.55" stop-color="#0A7EC2"/>
      <stop offset="1" stop-color="#9BC53D"/>
    </linearGradient>
  </defs>

  <rect x="0" y="34" width="220" height="152" rx="28" fill="url(#iconBlue)"/>
  <path d="M78 56C116 56 149 84 154 122C149 160 116 188 78 188H20V56H78ZM64 85H47V159H64C89 159 111 143 116 122C111 101 89 85 64 85Z" fill="white"/>
  <path d="M146 182L196 56H220L170 182H146Z" fill="url(#iconAccent)"/>

  <rect x="4" y="68" width="14" height="8" rx="2" fill="#43D0EC"/>
  <rect x="12" y="87" width="18" height="8" rx="2" fill="#2BC3E0"/>
  <rect x="2" y="106" width="10" height="8" rx="2" fill="#79E2EF"/>
  <rect x="10" y="125" width="20" height="8" rx="2" fill="#66D7E9"/>
  <rect x="4" y="144" width="12" height="8" rx="2" fill="#8949D6"/>

  <text x="248" y="126" font-family="'Segoe UI', Arial, sans-serif" font-size="78" font-weight="800" letter-spacing="1.4" fill="url(#wordBlue)">DEEPVTECH</text>
  <text x="256" y="170" font-family="'Segoe UI', Arial, sans-serif" font-size="42" font-weight="500" letter-spacing="14" fill="#1D2E52">SOLUTIONS</text>

  <rect x="818" y="71" width="8" height="8" rx="2" fill="#2BD8E9"/>
  <rect x="834" y="84" width="8" height="8" rx="2" fill="#62D26F"/>
  <rect x="850" y="97" width="8" height="8" rx="2" fill="#A6CC2F"/>
  <rect x="866" y="110" width="8" height="8" rx="2" fill="#F2C52A"/>
  <rect x="882" y="123" width="8" height="8" rx="2" fill="#F08E24"/>
</svg>
